HIERARCHY
ROOT Hips
{
	OFFSET 0.00000 0.00000 0.00000
	CHANNELS 6 Xposition Yposition Zposition Zrotation Yrotation Xrotation 
	JOINT LHipJoint
	{
		OFFSET 0 0 0
		CHANNELS 3 Zrotation Yrotation Xrotation
		JOINT LeftUpLeg
		{
			OFFSET 1.48831 -1.59570 0.95625
			CHANNELS 3 Zrotation Yrotation Xrotation
			JOINT LeftLeg
			{
				OFFSET 2.20856 -6.06797 0.00000
				CHANNELS 3 Zrotation Yrotation Xrotation
				JOINT LeftFoot
				{
					OFFSET 2.62924 -7.22379 0.00000
					CHANNELS 3 Zrotation Yrotation Xrotation
					JOINT LeftToeBase
					{
						OFFSET 0.16802 -0.46163 2.41673
						CHANNELS 3 Zrotation Yrotation Xrotation
						End Site
						{
							OFFSET 0.00000 -0.00000 1.23760
						}
					}
				}
			}
		}
	}
	JOINT RHipJoint
	{
		OFFSET 0 0 0
		CHANNELS 3 Zrotation Yrotation Xrotation
		JOINT RightUpLeg
		{
			OFFSET -1.56796 -1.59570 0.95625
			CHANNELS 3 Zrotation Yrotation Xrotation
			JOINT RightLeg
			{
				OFFSET -2.29239 -6.29829 0.00000
				CHANNELS 3 Zrotation Yrotation Xrotation
				JOINT RightFoot
				{
					OFFSET -2.66963 -7.33475 0.00000
					CHANNELS 3 Zrotation Yrotation Xrotation
					JOINT RightToeBase
					{
						OFFSET -0.18185 -0.49964 2.34359
						CHANNELS 3 Zrotation Yrotation Xrotation
						End Site
						{
							OFFSET -0.00000 -0.00000 1.20477
						}
					}
				}
			}
		}
	}
	JOINT LowerBack
	{
		OFFSET 0 0 0
		CHANNELS 3 Zrotation Yrotation Xrotation
		JOINT Spine
		{
			OFFSET 0.03505 2.15832 -0.34324
			CHANNELS 3 Zrotation Yrotation Xrotation
			JOINT Spine1
			{
				OFFSET -0.01089 2.17963 0.04689
				CHANNELS 3 Zrotation Yrotation Xrotation
				JOINT Neck
				{
					OFFSET 0 0 0
					CHANNELS 3 Zrotation Yrotation Xrotation
					JOINT Neck1
					{
						OFFSET 0.04686 1.69404 0.22159
						CHANNELS 3 Zrotation Yrotation Xrotation
						JOINT Head
						{
							OFFSET 0.00265 1.69305 -0.01513
							CHANNELS 3 Zrotation Yrotation Xrotation
							End Site
							{
								OFFSET -0.00415 1.80215 -0.03034
							}
						}
					}
				}
				JOINT LeftShoulder
				{
					OFFSET 0 0 0
					CHANNELS 3 Zrotation Yrotation Xrotation
					JOINT LeftArm
					{
						OFFSET 3.67184 1.11724 -0.19002
						CHANNELS 3 Zrotation Yrotation Xrotation
						JOINT LeftForeArm
						{
							OFFSET 5.17714 -0.00000 -0.00000
							CHANNELS 3 Zrotation Yrotation Xrotation
							JOINT LeftHand
							{
								OFFSET 3.43679 -0.00000 -0.00000
								CHANNELS 3 Zrotation Yrotation Xrotation
								JOINT LeftFingerBase
								{
									OFFSET 0 0 0
									CHANNELS 3 Zrotation Yrotation Xrotation
									JOINT LeftHandIndex1
									{
										OFFSET 0.57312 -0.00000 -0.00000
										CHANNELS 3 Zrotation Yrotation Xrotation
										End Site
										{
											OFFSET 0.46206 -0.00000 -0.00000
										}
									}
								}
								JOINT LThumb
								{
									OFFSET 0 0 0
									CHANNELS 3 Zrotation Yrotation Xrotation
									End Site
									{
										OFFSET 0.46912 -0.00000 0.46912
									}
								}
							}
						}
					}
				}
				JOINT RightShoulder
				{
					OFFSET 0 0 0
					CHANNELS 3 Zrotation Yrotation Xrotation
					JOINT RightArm
					{
						OFFSET -3.59596 0.95831 -0.26050
						CHANNELS 3 Zrotation Yrotation Xrotation
						JOINT RightForeArm
						{
							OFFSET -5.23908 -0.00000 -0.00000
							CHANNELS 3 Zrotation Yrotation Xrotation
							JOINT RightHand
							{
								OFFSET -3.46485 -0.00000 -0.00000
								CHANNELS 3 Zrotation Yrotation Xrotation
								JOINT RightFingerBase
								{
									OFFSET 0 0 0
									CHANNELS 3 Zrotation Yrotation Xrotation
									JOINT RightHandIndex1
									{
										OFFSET -0.60875 -0.00000 -0.00000
										CHANNELS 3 Zrotation Yrotation Xrotation
										End Site
										{
											OFFSET -0.49079 -0.00000 -0.00000
										}
									}
								}
								JOINT RThumb
								{
									OFFSET 0 0 0
									CHANNELS 3 Zrotation Yrotation Xrotation
									End Site
									{
										OFFSET -0.49829 -0.00000 0.49829
									}
								}
							}
						}
					}
				}
			}
		}
	}
}
MOTION
Frames: 10
Frame Time: .0083333
10.3433 16.2819 -11.5954 -1.9115 -14.4863 -363.4720 0.0000 0.0000 0.0000 -16.2425 12.0836 11.1894 4.8791 13.2463 40.2976 1.4366 7.0389 21.4451 0.4102 -4.1116 -11.3909 0.0000 0.0000 0.0000 21.0049 14.0541 -18.8302 -3.2257 -11.0517 32.4546 -0.1993 -13.4093 -21.2594 -0.0019 0.2821 -0.7751 -0.9117 -2.5039 1.1355 1.7942 -3.3508 0.6609 2.3756 -1.6852 0.2011 -3.2244 -9.8422 6.9588 5.6011 -13.0144 -11.2927 2.8553 -6.6129 -3.9176 -0.0000 0.0000 0.0000 -66.4539 5.1191 28.4523 46.5266 -51.4948 -23.4274 -0.0000 0.0000 -62.4887 42.4054 4.6388 4.2243 -7.1250 0.0000 -0.0000 13.1754 35.9783 -2.9865 -0.0000 0.0000 0.0000 81.7160 18.8632 62.2933 -49.9811 52.9879 -26.1590 0.0000 -0.0000 -8.9136 -54.0683 -4.5060 6.1869 7.1250 -0.0000 -0.0000 -22.9559 -36.6764 -5.0307
10.2282 16.2971 -11.4206 -2.6173 -14.3912 -363.4750 0.0000 0.0000 0.0000 -15.5416 10.8707 8.9686 5.8829 14.3139 44.5098 1.7088 7.5695 23.4265 0.2063 -2.9244 -8.0682 0.0000 0.0000 0.0000 22.2724 13.7587 -17.6738 -3.1762 -10.9749 32.1953 -0.2374 -13.3497 -21.5727 -0.0000 0.0077 -0.0212 -0.1930 -2.4749 1.1952 2.0017 -3.3058 0.6841 2.1891 -1.6608 0.1609 -3.3025 -9.9393 6.8785 5.6843 -13.1442 -11.1624 2.8846 -6.6787 -3.8477 0.0000 0.0000 0.0000 -66.7405 5.6788 28.5507 46.2480 -51.3654 -23.2096 -0.0000 0.0000 -62.4047 42.4260 4.5964 4.1889 -7.1250 0.0000 -0.0000 13.1858 35.9237 -3.0069 0.0000 0.0000 0.0000 82.0623 18.7267 62.8944 -49.3968 52.7493 -25.6932 0.0000 -0.0000 -9.0734 -54.0809 -4.5197 6.2085 7.1250 -0.0000 -0.0000 -22.9720 -36.6990 -5.0210
10.1148 16.3094 -11.2478 -3.3307 -14.2929 -363.4430 0.0000 0.0000 0.0000 -14.8545 9.6169 6.7594 6.8929 15.2410 48.4679 1.8862 7.4548 24.6526 0.0995 -2.0345 -5.6010 0.0000 0.0000 0.0000 23.5277 13.4148 -16.5794 -3.1241 -10.8933 31.9209 -0.2918 -13.2115 -21.9454 -0.0015 -0.2487 0.6833 0.5302 -2.4431 1.1907 2.2123 -3.2582 0.7373 1.9995 -1.6356 0.1879 -3.3775 -10.0392 6.8069 5.7810 -13.2756 -11.1084 2.9208 -6.7459 -3.8014 -0.0000 -0.0000 0.0000 -67.0365 6.1598 28.6079 45.9677 -51.2339 -22.9909 -0.0000 0.0000 -62.3247 42.4377 4.5250 4.1259 -7.1250 0.0000 -0.0000 13.1840 35.8305 -3.0372 -0.0000 -0.0000 0.0000 82.3805 18.6648 63.4767 -48.8408 52.5171 -25.2513 0.0000 -0.0000 -9.2724 -54.0863 -4.5481 6.2483 7.1250 -0.0000 -0.0000 -22.9881 -36.7438 -4.9978
10.0033 16.3187 -11.0764 -4.0177 -14.1775 -363.4030 0.0000 0.0000 0.0000 -14.2173 8.3315 4.5988 7.8823 16.0320 52.1376 1.9231 6.8040 24.9367 0.0528 -1.4833 -4.0797 0.0000 0.0000 0.0000 24.7327 13.0259 -15.5304 -3.0722 -10.8110 31.6450 -0.3589 -13.0260 -22.3766 -0.0053 -0.4692 1.2893 1.2246 -2.4117 1.1451 2.4165 -3.2139 0.8145 1.8170 -1.6116 0.2649 -3.4535 -10.1403 6.7339 5.8845 -13.4076 -11.0908 2.9604 -6.8138 -3.7652 0.0000 -0.0000 0.0000 -67.3458 6.5750 28.6257 45.6704 -51.0927 -22.7592 -0.0000 0.0000 -62.1954 42.4579 4.3980 4.0136 -7.1250 0.0000 -0.0000 13.1803 35.6647 -3.0910 0.0000 -0.0000 0.0000 82.6737 18.6573 64.0406 -48.3051 52.2886 -24.8269 0.0000 -0.0000 -9.4785 -54.0874 -4.5875 6.3021 7.1250 -0.0000 -0.0000 -23.0048 -36.8053 -4.9646
9.8935 16.3254 -10.9064 -4.6755 -14.0463 -363.3600 0.0000 0.0000 0.0000 -13.6324 7.0256 2.4951 8.8293 16.6966 55.4977 1.8195 5.7701 24.3126 0.0375 -1.2505 -3.4382 0.0000 0.0000 0.0000 25.8844 12.6012 -14.5215 -3.0215 -10.7298 31.3741 -0.4352 -12.8214 -22.8618 -0.0101 -0.6483 1.7816 1.8866 -2.3797 1.0916 2.6162 -3.1712 0.8955 1.6479 -1.5879 0.3527 -3.5404 -10.2425 6.6612 5.9911 -13.5419 -11.0773 3.0024 -6.8825 -3.7290 0.0000 -0.0000 0.0000 -67.6722 6.9496 28.6165 45.3447 -50.9362 -22.5061 -0.0000 0.0000 -61.9838 42.4889 4.2097 3.8467 -7.1250 0.0000 -0.0000 13.1754 35.4186 -3.1708 0.0000 -0.0000 0.0000 82.9414 18.6716 64.5792 -47.7818 52.0607 -24.4135 0.0000 -0.0000 -9.6648 -54.0893 -4.6399 6.3738 7.1250 -0.0000 -0.0000 -23.0278 -36.8871 -4.9204
9.7860 16.3300 -10.7382 -5.3107 -13.9011 -363.3180 0.0000 0.0000 0.0000 -13.0943 5.6981 0.4479 9.7155 17.2468 58.5333 1.6113 4.5759 22.9572 0.0371 -1.2426 -3.4165 0.0000 0.0000 0.0000 26.9851 12.1298 -13.5600 -2.9734 -10.6519 31.1148 -0.5186 -12.5906 -23.3691 -0.0148 -0.7854 2.1585 2.5279 -2.3487 1.0690 2.8109 -3.1300 0.9611 1.4876 -1.5643 0.4091 -3.6443 -10.3407 6.6455 5.8887 -13.7107 -10.7141 3.3033 -6.9356 -4.0103 -0.0000 0.0000 0.0000 -67.9964 7.3181 28.6171 45.0009 -50.7689 -22.2395 -0.0000 0.0000 -61.6903 42.5611 3.9828 3.6495 -7.1250 0.0000 -0.0000 13.1983 35.1235 -3.2738 -0.0000 0.0000 0.0000 83.1923 18.6788 65.0947 -47.2621 51.8298 -24.0043 0.0000 -0.0000 -9.8070 -54.0794 -4.6882 6.4372 7.1250 -0.0000 -0.0000 -23.0389 -36.9614 -4.8778
9.6817 16.3318 -10.5741 -5.9011 -13.7062 -363.3200 0.0000 0.0000 0.0000 -12.6434 4.3096 -1.5179 10.5273 17.6959 61.2367 1.3588 3.3882 21.1857 0.0429 -1.3364 -3.6749 0.0000 0.0000 0.0000 28.0027 11.5580 -12.6449 -2.9295 -10.5800 30.8761 -0.6082 -12.3166 -23.8723 -0.0189 -0.8886 2.4424 3.1337 -2.3315 1.1557 2.9878 -3.1011 1.0033 1.3349 -1.5473 0.3820 -3.7339 -10.4419 6.5760 5.9723 -13.8469 -10.6345 3.3376 -7.0043 -3.9476 0.0000 -0.0000 0.0000 -68.3129 7.6909 28.6268 44.6330 -50.5874 -21.9548 -0.0000 0.0000 -61.3171 42.6497 3.7461 3.4441 -7.1250 0.0000 -0.0000 13.2323 34.8154 -3.3844 0.0000 -0.0000 0.0000 83.4347 18.6628 65.5858 -46.7395 51.5927 -23.5941 0.0000 -0.0000 -9.9002 -54.0611 -4.7326 6.4932 7.1250 -0.0000 -0.0000 -23.0414 -37.0287 -4.8373
9.5804 16.3312 -10.4129 -6.4338 -13.5047 -363.3350 0.0000 0.0000 0.0000 -12.2826 2.9015 -3.4404 11.2497 18.0551 63.5897 1.0992 2.2906 19.1852 0.0509 -1.4566 -4.0061 0.0000 0.0000 0.0000 28.9225 10.9108 -11.8117 -2.8917 -10.5176 30.6696 -0.7017 -11.9845 -24.3389 -0.0218 -0.9535 2.6208 3.6940 -2.3119 1.3032 3.1458 -3.0632 1.0178 1.1919 -1.5268 0.2943 -3.8173 -10.5448 6.5038 6.0404 -13.9866 -10.5142 3.3627 -7.0744 -3.8711 -0.0000 0.0000 0.0000 -68.6229 8.0629 28.6500 44.2437 -50.3926 -21.6545 -0.0000 0.0000 -60.9037 42.7523 3.5401 3.2670 -7.1250 0.0000 -0.0000 13.2824 34.5479 -3.4864 -0.0000 0.0000 0.0000 83.6672 18.6256 66.0438 -46.2117 51.3485 -23.1812 0.0000 -0.0000 -9.9553 -54.0315 -4.7650 6.5300 7.1250 -0.0000 -0.0000 -23.0293 -37.0760 -4.8056
9.4817 16.3275 -10.2544 -6.9063 -13.3073 -363.3640 0.0000 0.0000 0.0000 -12.0043 1.4946 -5.3185 11.8719 18.3360 65.5824 0.8473 1.2156 17.0259 0.0631 -1.6213 -4.4602 0.0000 0.0000 0.0000 29.7468 10.1986 -11.0590 -2.8620 -10.4683 30.5068 -0.7926 -11.6320 -24.7558 -0.0219 -0.9544 2.6235 4.2082 -2.2889 1.5013 3.2809 -3.0147 1.0133 1.0538 -1.5021 0.1606 -3.8972 -10.6468 6.4319 6.1061 -14.1253 -10.3649 3.3842 -7.1442 -3.7849 0.0000 -0.0000 0.0000 -68.9287 8.4278 28.6694 43.8366 -50.1856 -21.3413 -0.0000 0.0000 -60.4906 42.8511 3.3714 3.1227 -7.1250 0.0000 -0.0000 13.3350 34.3288 -3.5738 0.0000 -0.0000 0.0000 83.8922 18.5793 66.4805 -45.6848 51.0996 -22.7705 0.0000 -0.0000 -9.9983 -53.9855 -4.7878 6.5500 7.1250 -0.0000 -0.0000 -22.9993 -37.1067 -4.7798
9.3845 16.3213 -10.0969 -7.2992 -13.1461 -363.3940 0.0000 0.0000 0.0000 -11.8127 0.1320 -7.1539 12.3834 18.5481 67.1990 0.6105 0.1166 14.7256 0.0771 -1.7913 -4.9291 0.0000 0.0000 0.0000 30.4640 9.4680 -10.3794 -2.8420 -10.4348 30.3966 -0.8815 -11.2654 -25.1398 -0.0196 -0.9034 2.4832 4.6513 -2.2514 1.6941 3.3879 -2.9450 1.0032 0.9257 -1.4676 0.0271 -3.9655 -10.7462 6.3582 6.1683 -14.2598 -10.2009 3.4012 -7.2122 -3.6946 -0.0000 -0.0000 0.0000 -69.2339 8.7700 28.6605 43.4101 -49.9654 -21.0143 -0.0000 0.0000 -60.1212 42.9268 3.2466 3.0153 -7.1250 0.0000 -0.0000 13.3757 34.1663 -3.6393 -0.0000 -0.0000 0.0000 84.1200 18.5420 66.8975 -45.1601 50.8467 -22.3628 0.0000 -0.0000 -10.0516 -53.9135 -4.8043 6.5552 7.1250 -0.0000 -0.0000 -22.9446 -37.1249 -4.7557
